<?xml version="1.0" encoding="utf-8"?>
<!-- Generator: Adobe Illustrator 16.0.0, SVG Export Plug-In . SVG Version: 6.00 Build 0)  -->
<!DOCTYPE svg PUBLIC "-//W3C//DTD SVG 1.1//EN" "http://www.w3.org/Graphics/SVG/1.1/DTD/svg11.dtd">
<svg version="1.1" id="Layer_1" xmlns="http://www.w3.org/2000/svg" xmlns:xlink="http://www.w3.org/1999/xlink" x="0px" y="0px"
	 width="188.516px" height="32.764px" viewBox="0 0 188.516 32.764" enable-background="new 0 0 188.516 32.764"
	 xml:space="preserve">
<g>
	<g>
		<path fill="#536786" d="M49.888,31.869c-0.121-0.206-0.236-0.418-0.345-0.636s-0.206-0.436-0.29-0.653
			c-1.561-4.112-3.115-8.189-4.664-12.229s-3.103-8.117-4.663-12.23c0-0.061-0.009-0.114-0.027-0.163
			c-0.018-0.048-0.027-0.097-0.027-0.146c0-0.338,0.224-0.508,0.671-0.508h5.843c0.459,0,0.774,0.23,0.944,0.689l5.552,16.53
			l5.135-16.53c0.169-0.459,0.502-0.689,0.998-0.689h5.897c0.278,0,0.475,0.052,0.59,0.154c0.115,0.104,0.172,0.239,0.172,0.408
			c0,0.097-0.006,0.163-0.018,0.2V6.12l-3.23,9.255l2.432,7.131l5.879-16.513c0.169-0.459,0.502-0.689,0.998-0.689h5.716
			c0.278,0,0.475,0.052,0.59,0.154c0.115,0.104,0.172,0.239,0.172,0.408c0,0.097-0.006,0.163-0.018,0.2V6.12
			c-0.823,2.13-1.664,4.253-2.522,6.369c-0.859,2.117-1.721,4.234-2.585,6.352c-0.865,2.116-1.724,4.236-2.577,6.359
			c-0.853,2.123-1.685,4.243-2.495,6.36c-0.048,0.133-0.157,0.281-0.327,0.444s-0.375,0.245-0.617,0.245h-0.054h-4.391
			c-0.266,0-0.469-0.052-0.608-0.154c-0.139-0.103-0.239-0.239-0.299-0.408l-2.867-7.549c-0.411,1.101-0.816,2.181-1.216,3.239
			c-0.399,1.059-0.798,2.138-1.197,3.238c-0.061,0.17-0.13,0.349-0.209,0.536s-0.172,0.362-0.281,0.525
			c-0.109,0.164-0.233,0.3-0.372,0.409c-0.14,0.108-0.3,0.163-0.481,0.163h-0.055H50.65C50.263,32.25,50.009,32.123,49.888,31.869z"
			/>
		<path fill="#536786" d="M79.355,1.438c0-0.508,0.109-0.867,0.327-1.079s0.556-0.317,1.016-0.317h4.21
			c0.423,0,0.765,0.105,1.025,0.317s0.39,0.571,0.39,1.079v3.539c0,0.145-0.033,0.303-0.1,0.472
			c-0.067,0.169-0.161,0.333-0.281,0.49c-0.121,0.157-0.27,0.287-0.445,0.39s-0.372,0.154-0.589,0.154h-4.21
			c-0.895,0-1.343-0.502-1.343-1.506V1.438z M79.355,10.62c0-0.387,0.109-0.719,0.327-0.998c0.218-0.277,0.556-0.417,1.016-0.417
			h4.155c0.146,0,0.302,0.033,0.472,0.1s0.327,0.163,0.472,0.291c0.145,0.127,0.269,0.274,0.372,0.444
			c0.103,0.169,0.154,0.362,0.154,0.58v20.232c0,0.46-0.127,0.808-0.381,1.043c-0.254,0.236-0.617,0.354-1.089,0.354h-4.155
			c-0.895,0-1.343-0.466-1.343-1.397V10.62z"/>
		<path fill="#536786" d="M89.226,3.743c0-0.205,0.006-0.393,0.019-0.562c0.012-0.169,0.063-0.314,0.154-0.436
			c0.091-0.12,0.233-0.214,0.427-0.281c0.193-0.066,0.465-0.1,0.816-0.1h4.337c0.229,0,0.42,0.039,0.571,0.118
			s0.272,0.179,0.363,0.299c0.091,0.121,0.151,0.252,0.182,0.391s0.045,0.27,0.045,0.39v13.428l6.532-7.258
			c0.314-0.351,0.689-0.526,1.125-0.526h5.571c0.665,0,0.998,0.261,0.998,0.78c0,0.133-0.021,0.242-0.063,0.327
			c-0.042,0.084-0.13,0.205-0.263,0.362l-7.458,7.875l9.381,12.049h-0.036c0.156,0.157,0.27,0.317,0.336,0.48
			c0.066,0.164,0.1,0.312,0.1,0.445c0,0.278-0.076,0.469-0.227,0.571c-0.152,0.103-0.379,0.154-0.682,0.154h-6.132
			c-0.206,0-0.399-0.079-0.581-0.236c-0.182-0.157-0.381-0.393-0.599-0.707l-5.934-8.401l-2.014,2.086v5.861
			c0,0.097-0.016,0.224-0.045,0.381c-0.031,0.157-0.091,0.312-0.182,0.463s-0.215,0.281-0.372,0.391
			c-0.157,0.108-0.363,0.163-0.617,0.163h-4.555c-0.218,0-0.405-0.058-0.562-0.173c-0.157-0.114-0.281-0.245-0.372-0.39
			c-0.091-0.146-0.157-0.281-0.2-0.408s-0.063-0.203-0.063-0.228V3.743z"/>
		<path fill="#536786" d="M113.395,1.438c0-0.508,0.109-0.867,0.327-1.079s0.556-0.317,1.017-0.317h4.209
			c0.424,0,0.766,0.105,1.025,0.317s0.391,0.571,0.391,1.079v3.539c0,0.145-0.033,0.303-0.1,0.472
			c-0.067,0.169-0.161,0.333-0.281,0.49c-0.121,0.157-0.27,0.287-0.445,0.39s-0.371,0.154-0.59,0.154h-4.209
			c-0.896,0-1.344-0.502-1.344-1.506V1.438z M113.395,10.62c0-0.387,0.109-0.719,0.327-0.998c0.218-0.277,0.556-0.417,1.017-0.417
			h4.154c0.146,0,0.303,0.033,0.473,0.1c0.169,0.066,0.326,0.163,0.472,0.291c0.146,0.127,0.269,0.274,0.372,0.444
			c0.103,0.169,0.154,0.362,0.154,0.58v20.232c0,0.46-0.127,0.808-0.381,1.043c-0.254,0.236-0.617,0.354-1.09,0.354h-4.154
			c-0.896,0-1.344-0.466-1.344-1.397V10.62z"/>
		<path fill="#536786" d="M123.993,6.139c0-0.254,0.069-0.457,0.209-0.608c0.139-0.15,0.336-0.227,0.59-0.227h12.048
			c1.064,0,2.069,0.203,3.013,0.608s1.769,0.961,2.477,1.669c0.707,0.708,1.266,1.536,1.678,2.486
			c0.412,0.949,0.617,1.969,0.617,3.058c0,0.907-0.143,1.751-0.426,2.531c-0.285,0.78-0.688,1.479-1.207,2.096
			c0.871,0.798,1.561,1.748,2.068,2.849s0.762,2.268,0.762,3.502c0,1.101-0.211,2.145-0.635,3.13
			c-0.424,0.986-0.996,1.851-1.715,2.595s-1.561,1.334-2.521,1.77c-0.962,0.436-1.975,0.653-3.039,0.653h-13.119
			c-0.242,0-0.436-0.063-0.581-0.19s-0.218-0.324-0.218-0.59V6.139z M137.657,13.288c0-0.363-0.067-0.702-0.201-1.017
			c-0.133-0.314-0.321-0.593-0.564-0.834c-0.242-0.242-0.533-0.433-0.873-0.572c-0.34-0.139-0.709-0.208-1.109-0.208h-3.895v5.262
			h3.84c0.412,0,0.791-0.063,1.137-0.19s0.641-0.309,0.883-0.545c0.242-0.235,0.434-0.514,0.573-0.834
			S137.657,13.675,137.657,13.288z M138.618,23.83c0-0.362-0.07-0.726-0.209-1.089c-0.14-0.362-0.334-0.686-0.582-0.971
			c-0.249-0.284-0.546-0.517-0.892-0.698s-0.718-0.272-1.118-0.272h-4.803v6.061h4.803c0.4,0,0.77-0.084,1.109-0.254
			c0.34-0.169,0.637-0.396,0.891-0.681c0.255-0.284,0.452-0.607,0.592-0.971C138.547,24.593,138.618,24.218,138.618,23.83z"/>
		<path fill="#536786" d="M147.381,1.438c0-0.508,0.109-0.867,0.326-1.079c0.219-0.212,0.557-0.317,1.016-0.317h4.211
			c0.422,0,0.764,0.105,1.025,0.317c0.26,0.212,0.389,0.571,0.389,1.079v3.539c0,0.145-0.033,0.303-0.1,0.472
			s-0.16,0.333-0.281,0.49s-0.27,0.287-0.443,0.39c-0.176,0.103-0.373,0.154-0.59,0.154h-4.211c-0.895,0-1.342-0.502-1.342-1.506
			V1.438z M147.381,10.62c0-0.387,0.109-0.719,0.326-0.998c0.219-0.277,0.557-0.417,1.016-0.417h4.156
			c0.145,0,0.303,0.033,0.471,0.1c0.17,0.066,0.328,0.163,0.473,0.291c0.145,0.127,0.27,0.274,0.371,0.444
			c0.104,0.169,0.154,0.362,0.154,0.58v20.232c0,0.46-0.127,0.808-0.381,1.043c-0.254,0.236-0.617,0.354-1.088,0.354h-4.156
			c-0.895,0-1.342-0.466-1.342-1.397V10.62z"/>
		<path fill="#536786" d="M158.649,5.612c0-0.375,0.123-0.656,0.371-0.844s0.602-0.365,1.062-0.535l4.119-1.434
			c0.061-0.012,0.117-0.019,0.172-0.019s0.105,0,0.154,0c0.447,0,0.746,0.131,0.898,0.391c0.15,0.26,0.227,0.602,0.227,1.025
			l-0.018,5.716h3.029c0.387,0,0.701,0.115,0.943,0.345s0.363,0.574,0.363,1.034v3.502c0,0.508-0.121,0.88-0.363,1.116
			c-0.242,0.235-0.557,0.354-0.943,0.354h-3.029l0.018,14.589c0,0.46-0.133,0.808-0.398,1.043c-0.268,0.236-0.635,0.354-1.107,0.354
			h-4.102c-0.932,0-1.396-0.466-1.396-1.397l-0.018-14.589h-1.326c-0.932,0-1.396-0.49-1.396-1.47v-3.502
			c0-0.919,0.465-1.379,1.396-1.379h1.326L158.649,5.612z"/>
		<path fill="#536786" d="M174.834,25.082c0.328,0.327,0.682,0.603,1.062,0.826s0.746,0.405,1.098,0.544
			c0.35,0.14,0.658,0.239,0.926,0.3c0.266,0.061,0.447,0.091,0.543,0.091c0.23,0,0.523-0.01,0.881-0.027
			c0.357-0.019,0.699-0.073,1.025-0.163c0.326-0.091,0.607-0.239,0.844-0.445c0.236-0.205,0.354-0.495,0.354-0.871
			c0-0.338-0.066-0.607-0.199-0.807c-0.133-0.2-0.326-0.369-0.58-0.509c-0.256-0.139-0.566-0.263-0.936-0.372
			c-0.369-0.108-0.783-0.235-1.242-0.381c-1.453-0.387-2.65-0.853-3.594-1.396c-0.943-0.545-1.689-1.152-2.24-1.824
			c-0.551-0.671-0.936-1.394-1.152-2.168c-0.219-0.774-0.326-1.591-0.326-2.45c0-1.004,0.199-1.917,0.598-2.739
			c0.4-0.823,0.969-1.527,1.707-2.114c0.736-0.587,1.619-1.04,2.648-1.361c1.027-0.32,2.172-0.48,3.43-0.48
			c0.762,0,1.475,0.063,2.141,0.19s1.301,0.327,1.906,0.599c0.604,0.272,1.193,0.623,1.768,1.053c0.576,0.43,1.146,0.94,1.715,1.533
			c0.207,0.242,0.312,0.469,0.318,0.681s-0.131,0.438-0.408,0.681c-0.473,0.387-0.922,0.768-1.352,1.143s-0.875,0.793-1.334,1.252
			c-0.145,0.121-0.291,0.197-0.436,0.228s-0.285,0.026-0.418-0.01s-0.26-0.097-0.381-0.182c-0.121-0.084-0.23-0.188-0.326-0.308
			c-0.424-0.473-0.908-0.79-1.451-0.953c-0.545-0.163-1.053-0.245-1.525-0.245c-0.592,0-1.064,0.104-1.414,0.309
			c-0.352,0.206-0.516,0.521-0.49,0.943c0.023,0.315,0.143,0.56,0.354,0.735s0.473,0.317,0.779,0.426
			c0.309,0.109,0.637,0.197,0.98,0.264c0.346,0.066,0.662,0.143,0.953,0.227c1.088,0.352,2.086,0.732,2.994,1.144
			c0.906,0.411,1.693,0.916,2.359,1.515c0.664,0.599,1.182,1.315,1.551,2.15s0.553,1.851,0.553,3.049
			c0,1.197-0.238,2.268-0.717,3.211c-0.477,0.944-1.133,1.736-1.969,2.378c-0.834,0.641-1.822,1.131-2.967,1.47
			c-1.143,0.338-2.373,0.508-3.691,0.508c-0.75,0-1.514-0.066-2.287-0.2c-0.773-0.133-1.523-0.347-2.25-0.644
			s-1.416-0.678-2.068-1.144c-0.652-0.465-1.234-1.031-1.742-1.696c-0.133-0.169-0.232-0.348-0.299-0.535s-0.098-0.372-0.092-0.554
			s0.043-0.348,0.109-0.499s0.172-0.281,0.318-0.39l2.34-2.341c0.291-0.242,0.547-0.327,0.771-0.254
			C174.198,24.538,174.485,24.744,174.834,25.082z"/>
	</g>
	<path fill="#F0CF79" d="M147.409,1.439c0-0.508,0.109-0.868,0.326-1.079c0.219-0.212,0.557-0.318,1.016-0.318h4.211
		c0.422,0,0.764,0.106,1.025,0.318c0.26,0.211,0.389,0.571,0.389,1.079v3.538c0,0.146-0.033,0.303-0.1,0.473
		c-0.066,0.169-0.16,0.332-0.281,0.49c-0.121,0.156-0.27,0.287-0.443,0.39c-0.176,0.103-0.373,0.153-0.59,0.153h-4.211
		c-0.895,0-1.342-0.501-1.342-1.506V1.439z"/>
	<path fill="#AD89BE" d="M113.422,1.439c0-0.508,0.109-0.868,0.327-1.079c0.218-0.212,0.556-0.318,1.017-0.318h4.209
		c0.424,0,0.766,0.106,1.025,0.318c0.26,0.211,0.391,0.571,0.391,1.079v3.538c0,0.146-0.033,0.303-0.1,0.473
		c-0.067,0.169-0.161,0.332-0.281,0.49c-0.121,0.156-0.27,0.287-0.445,0.39s-0.371,0.153-0.59,0.153h-4.209
		c-0.896,0-1.344-0.501-1.344-1.506V1.439z"/>
	<path fill="#7ECCBF" d="M79.383,1.439c0-0.508,0.109-0.868,0.327-1.079c0.218-0.212,0.556-0.318,1.016-0.318h4.21
		c0.423,0,0.765,0.106,1.025,0.318c0.26,0.211,0.39,0.571,0.39,1.079v3.538c0,0.146-0.033,0.303-0.1,0.473
		c-0.067,0.169-0.161,0.332-0.281,0.49c-0.121,0.156-0.27,0.287-0.445,0.39s-0.372,0.153-0.589,0.153h-4.21
		c-0.895,0-1.343-0.501-1.343-1.506V1.439z"/>
</g>
<g>
	<path fill="#536786" d="M23.003,0H9.759C4.378,0,0,4.378,0,9.761v13.242c0,5.382,4.378,9.761,9.759,9.761h13.244
		c5.381,0,9.76-4.379,9.76-9.761V9.761C32.763,4.378,28.384,0,23.003,0L23.003,0z M28.382,22.454c0,3.273-2.654,5.928-5.928,5.928
		H10.31c-3.274,0-5.928-2.654-5.928-5.928V10.31c0-3.273,2.653-5.928,5.928-5.928h12.145c3.273,0,5.928,2.654,5.928,5.928V22.454
		L28.382,22.454z"/>
	<path fill="#F0CF79" d="M19.599,11.194c-0.256-0.256-0.383-0.493-0.379-0.708c0.003-0.218,0.12-0.442,0.351-0.673l2.121-2.121
		c0.213-0.213,0.438-0.332,0.678-0.355c0.237-0.025,0.483,0.092,0.739,0.348l1.783,1.781c0.072,0.074,0.135,0.17,0.188,0.289
		c0.051,0.119,0.087,0.248,0.104,0.389c0.019,0.141,0.009,0.281-0.026,0.419c-0.037,0.141-0.111,0.267-0.221,0.374l-2.121,2.122
		c-0.451,0.451-0.928,0.424-1.434-0.082L19.599,11.194z"/>
	<path fill="#AD89BE" d="M13.773,17.02c-0.256-0.256-0.382-0.492-0.379-0.708c0.002-0.217,0.12-0.441,0.352-0.672l2.12-2.122
		c0.214-0.212,0.44-0.332,0.677-0.355c0.237-0.025,0.485,0.091,0.741,0.347l1.783,1.783c0.073,0.072,0.136,0.169,0.187,0.287
		c0.053,0.12,0.087,0.248,0.107,0.389c0.018,0.141,0.008,0.281-0.029,0.421c-0.037,0.141-0.109,0.265-0.219,0.375l-2.122,2.119
		c-0.451,0.452-0.928,0.426-1.435-0.081L13.773,17.02z"/>
	<path fill="#7ECCBF" d="M7.948,22.845c-0.256-0.256-0.382-0.492-0.38-0.708c0.003-0.217,0.121-0.441,0.353-0.673l2.121-2.121
		c0.213-0.213,0.438-0.331,0.677-0.355c0.237-0.025,0.484,0.091,0.741,0.348l1.781,1.781c0.074,0.074,0.136,0.17,0.188,0.289
		c0.052,0.119,0.086,0.247,0.105,0.388c0.018,0.141,0.009,0.281-0.028,0.421c-0.036,0.141-0.109,0.265-0.22,0.374l-2.12,2.121
		c-0.451,0.451-0.929,0.425-1.435-0.081L7.948,22.845z"/>
</g>
</svg>
