<?xml version="1.0" encoding="utf-8"?>
<!-- Generator: Adobe Illustrator 16.0.0, SVG Export Plug-In . SVG Version: 6.00 Build 0)  -->
<!DOCTYPE svg PUBLIC "-//W3C//DTD SVG 1.1//EN" "http://www.w3.org/Graphics/SVG/1.1/DTD/svg11.dtd">
<svg version="1.1" id="Layer_1" xmlns="http://www.w3.org/2000/svg" xmlns:xlink="http://www.w3.org/1999/xlink" x="0px" y="0px"
	 width="242px" height="200px" viewBox="0 0 242 200" enable-background="new 0 0 242 200" xml:space="preserve">
<rect x="0.21" y="0.308" fill="#FFFFFF" width="241.581" height="199.383"/>
<g opacity="0.6">
	<path fill="#536786" d="M141.3,49.779h-40.602c-16.494,0-29.917,13.421-29.917,29.923v40.597c0,16.498,13.423,29.922,29.917,29.922
		H141.3c16.496,0,29.921-13.424,29.921-29.922V79.702C171.221,63.2,157.796,49.779,141.3,49.779L141.3,49.779z M157.791,118.615
		c0,10.035-8.139,18.174-18.173,18.174h-37.23c-10.039,0-18.174-8.139-18.174-18.174v-37.23c0-10.036,8.135-18.172,18.174-18.172
		h37.23c10.034,0,18.173,8.137,18.173,18.172V118.615L157.791,118.615z"/>
	<path fill="#F0CF79" d="M130.863,84.097c-0.784-0.784-1.174-1.511-1.162-2.17c0.01-0.668,0.369-1.356,1.076-2.062l6.502-6.503
		c0.652-0.653,1.345-1.018,2.078-1.09c0.728-0.078,1.481,0.282,2.266,1.066l5.468,5.461c0.222,0.227,0.412,0.52,0.574,0.885
		c0.155,0.366,0.266,0.761,0.32,1.192c0.057,0.432,0.027,0.862-0.081,1.284c-0.114,0.432-0.341,0.817-0.676,1.146l-6.503,6.505
		c-1.384,1.383-2.844,1.299-4.396-0.252L130.863,84.097z"/>
	<path fill="#AD89BE" d="M113.005,101.955c-0.785-0.783-1.171-1.508-1.162-2.17c0.007-0.664,0.367-1.354,1.078-2.061l6.499-6.504
		c0.657-0.65,1.351-1.018,2.075-1.09c0.729-0.078,1.488,0.277,2.271,1.062l5.466,5.467c0.224,0.221,0.416,0.518,0.571,0.881
		c0.162,0.367,0.267,0.76,0.329,1.189c0.054,0.432,0.024,0.863-0.09,1.291c-0.113,0.432-0.335,0.812-0.671,1.15l-6.505,6.494
		c-1.381,1.387-2.844,1.307-4.397-0.248L113.005,101.955z"/>
	<path fill="#7ECCBF" d="M95.146,119.812c-0.785-0.783-1.172-1.508-1.165-2.17c0.011-0.664,0.371-1.354,1.081-2.062l6.502-6.502
		c0.653-0.652,1.344-1.016,2.075-1.09c0.726-0.078,1.483,0.277,2.271,1.064l5.461,5.461c0.228,0.229,0.418,0.521,0.578,0.887
		c0.158,0.365,0.265,0.758,0.321,1.189c0.054,0.432,0.027,0.861-0.086,1.289c-0.11,0.432-0.335,0.812-0.675,1.146l-6.499,6.504
		c-1.382,1.383-2.85,1.301-4.399-0.25L95.146,119.812z"/>
</g>
</svg>
