<?xml version="1.0" encoding="utf-8"?>
<!-- Generator: Adobe Illustrator 16.0.0, SVG Export Plug-In . SVG Version: 6.00 Build 0)  -->
<!DOCTYPE svg PUBLIC "-//W3C//DTD SVG 1.1//EN" "http://www.w3.org/Graphics/SVG/1.1/DTD/svg11.dtd">
<svg version="1.1" id="Layer_1" xmlns="http://www.w3.org/2000/svg" xmlns:xlink="http://www.w3.org/1999/xlink" x="0px" y="0px"
	 width="125.955px" height="32.764px" viewBox="1.247 -0.02 125.955 32.764" enable-background="new 1.247 -0.02 125.955 32.764"
	 xml:space="preserve">
<g>
	<g>
		<path fill="#536786" d="M44.023,25.654c-0.073-0.124-0.142-0.251-0.207-0.382c-0.065-0.132-0.124-0.263-0.174-0.392
			c-0.937-2.468-1.869-4.915-2.799-7.339c-0.929-2.424-1.862-4.87-2.798-7.338c0-0.037-0.005-0.068-0.016-0.098
			c-0.011-0.028-0.016-0.059-0.016-0.088c0-0.203,0.134-0.305,0.403-0.305h3.505c0.275,0,0.465,0.139,0.567,0.414l3.331,9.918
			l3.081-9.918c0.102-0.275,0.301-0.414,0.599-0.414h3.539c0.167,0,0.285,0.031,0.354,0.093c0.069,0.062,0.103,0.144,0.103,0.245
			c0,0.058-0.003,0.097-0.011,0.119v0.033l-1.938,5.553l1.459,4.279l3.527-9.908c0.101-0.275,0.301-0.414,0.599-0.414h3.43
			c0.167,0,0.285,0.031,0.354,0.093c0.069,0.062,0.103,0.144,0.103,0.245c0,0.058-0.003,0.097-0.011,0.119v0.033
			c-0.493,1.277-0.999,2.552-1.513,3.821c-0.516,1.27-1.033,2.54-1.552,3.81c-0.519,1.271-1.035,2.543-1.546,3.816
			c-0.511,1.274-1.011,2.545-1.497,3.815c-0.028,0.079-0.094,0.169-0.196,0.267c-0.102,0.099-0.225,0.148-0.37,0.148h-0.032h-2.634
			c-0.16,0-0.281-0.031-0.365-0.094c-0.083-0.062-0.144-0.144-0.179-0.244l-1.72-4.53c-0.247,0.661-0.489,1.31-0.729,1.945
			c-0.24,0.635-0.479,1.282-0.719,1.942c-0.036,0.102-0.078,0.209-0.125,0.321c-0.048,0.112-0.104,0.216-0.168,0.314
			c-0.065,0.099-0.14,0.181-0.223,0.246c-0.084,0.063-0.181,0.099-0.289,0.099h-0.033H44.48
			C44.247,25.881,44.095,25.806,44.023,25.654z"/>
		<path fill="#536786" d="M61.703,12.903c0-0.232,0.065-0.432,0.196-0.599c0.131-0.166,0.334-0.25,0.61-0.25h2.493
			c0.088,0,0.18,0.02,0.284,0.06c0.102,0.041,0.195,0.098,0.282,0.175c0.087,0.076,0.162,0.165,0.224,0.267
			c0.061,0.102,0.093,0.217,0.093,0.348v12.139c0,0.277-0.077,0.485-0.229,0.626c-0.152,0.144-0.369,0.214-0.653,0.214H62.51
			c-0.538,0-0.806-0.279-0.806-0.84V12.903z"/>
		<path fill="#536786" d="M67.626,8.777c0-0.123,0.004-0.236,0.012-0.337c0.007-0.102,0.038-0.188,0.092-0.262
			c0.055-0.072,0.141-0.128,0.256-0.169c0.116-0.04,0.279-0.06,0.49-0.06h2.602c0.139,0,0.252,0.022,0.344,0.07
			c0.09,0.048,0.163,0.107,0.218,0.18c0.054,0.072,0.09,0.151,0.109,0.234c0.019,0.083,0.027,0.162,0.027,0.234v8.057l3.919-4.355
			c0.188-0.21,0.414-0.314,0.675-0.314h3.344c0.398,0,0.599,0.156,0.599,0.467c0,0.081-0.013,0.146-0.039,0.196
			c-0.025,0.051-0.078,0.123-0.157,0.218l-4.475,4.726l5.628,7.228h-0.021c0.094,0.097,0.162,0.192,0.201,0.289
			c0.04,0.098,0.06,0.188,0.06,0.267c0,0.167-0.046,0.281-0.136,0.343c-0.091,0.062-0.227,0.094-0.409,0.094h-3.68
			c-0.123,0-0.239-0.047-0.348-0.144c-0.11-0.094-0.229-0.234-0.36-0.424l-3.56-5.039l-1.209,1.251v3.516
			c0,0.059-0.009,0.137-0.027,0.23s-0.054,0.188-0.109,0.276c-0.054,0.091-0.129,0.169-0.223,0.234
			c-0.095,0.065-0.218,0.099-0.371,0.099h-2.732c-0.131,0-0.244-0.035-0.338-0.104s-0.168-0.147-0.224-0.234
			c-0.054-0.087-0.094-0.169-0.12-0.246c-0.026-0.075-0.038-0.119-0.038-0.136V8.777L67.626,8.777z"/>
		<path fill="#536786" d="M82.128,12.903c0-0.232,0.066-0.432,0.196-0.599c0.13-0.166,0.334-0.25,0.611-0.25h2.493
			c0.088,0,0.182,0.02,0.283,0.06c0.102,0.04,0.196,0.098,0.284,0.175c0.087,0.076,0.161,0.165,0.223,0.267s0.093,0.217,0.093,0.348
			v12.139c0,0.277-0.076,0.485-0.229,0.626c-0.152,0.144-0.371,0.214-0.654,0.214h-2.493c-0.538,0-0.807-0.279-0.807-0.84V12.903z"
			/>
		<path fill="#536786" d="M88.487,10.214c0-0.152,0.041-0.274,0.125-0.364c0.083-0.091,0.202-0.137,0.354-0.137h7.229
			c0.637,0,1.24,0.122,1.807,0.365c0.566,0.242,1.061,0.576,1.486,1.001c0.424,0.425,0.76,0.922,1.008,1.491
			c0.246,0.569,0.369,1.182,0.369,1.835c0,0.545-0.086,1.051-0.256,1.52c-0.17,0.468-0.412,0.888-0.723,1.258
			c0.521,0.479,0.936,1.048,1.238,1.709c0.305,0.661,0.457,1.361,0.457,2.1c0,0.661-0.125,1.289-0.381,1.88
			c-0.254,0.591-0.598,1.111-1.027,1.557c-0.432,0.447-0.938,0.801-1.512,1.062c-0.578,0.263-1.188,0.392-1.824,0.392h-7.871
			c-0.146,0-0.263-0.038-0.349-0.113c-0.087-0.077-0.13-0.194-0.13-0.354L88.487,10.214L88.487,10.214z M96.684,14.504
			c0-0.219-0.039-0.422-0.119-0.611c-0.08-0.188-0.193-0.355-0.34-0.5c-0.145-0.146-0.319-0.26-0.523-0.343
			c-0.203-0.084-0.425-0.125-0.664-0.125h-2.338v3.157h2.304c0.247,0,0.475-0.038,0.684-0.114c0.207-0.076,0.384-0.186,0.528-0.327
			c0.146-0.141,0.262-0.308,0.344-0.5C96.643,14.949,96.684,14.736,96.684,14.504z M97.262,20.83c0-0.219-0.043-0.437-0.127-0.654
			s-0.199-0.412-0.348-0.584c-0.15-0.171-0.328-0.309-0.537-0.417c-0.207-0.11-0.429-0.164-0.669-0.164h-2.882v3.636h2.882
			c0.24,0,0.462-0.05,0.665-0.152c0.203-0.102,0.383-0.237,0.535-0.408s0.27-0.363,0.354-0.581S97.262,21.062,97.262,20.83z"/>
		<path fill="#536786" d="M102.52,12.903c0-0.232,0.064-0.432,0.195-0.599c0.131-0.166,0.334-0.25,0.609-0.25h2.494
			c0.086,0,0.182,0.02,0.283,0.06s0.195,0.098,0.283,0.175c0.086,0.076,0.162,0.165,0.223,0.267
			c0.062,0.102,0.092,0.217,0.092,0.348v12.139c0,0.277-0.076,0.485-0.229,0.626c-0.152,0.144-0.369,0.214-0.652,0.214h-2.494
			c-0.537,0-0.805-0.279-0.805-0.84V12.903L102.52,12.903z"/>
		<path fill="#536786" d="M109.28,9.898c0-0.225,0.074-0.394,0.223-0.506c0.15-0.113,0.361-0.22,0.639-0.321l2.471-0.86
			c0.037-0.007,0.07-0.011,0.104-0.011s0.062,0,0.092,0c0.268,0,0.447,0.078,0.539,0.234c0.09,0.155,0.135,0.36,0.135,0.614
			l-0.01,3.43h1.818c0.23,0,0.42,0.069,0.564,0.207c0.146,0.138,0.219,0.345,0.219,0.621v2.101c0,0.305-0.072,0.528-0.219,0.67
			c-0.145,0.141-0.334,0.212-0.564,0.212h-1.818l0.01,8.753c0,0.277-0.078,0.485-0.236,0.626c-0.162,0.144-0.381,0.214-0.666,0.214
			h-2.461c-0.559,0-0.838-0.279-0.838-0.84l-0.01-8.753h-0.795c-0.561,0-0.838-0.294-0.838-0.882v-2.101
			c0-0.552,0.277-0.828,0.838-0.828h0.795L109.28,9.898z"/>
		<path fill="#536786" d="M118.992,21.58c0.195,0.196,0.408,0.36,0.635,0.496c0.229,0.134,0.449,0.242,0.66,0.326
			s0.395,0.143,0.557,0.181c0.158,0.035,0.268,0.054,0.324,0.054c0.139,0,0.314-0.007,0.529-0.017
			c0.215-0.012,0.42-0.044,0.615-0.099c0.195-0.054,0.363-0.143,0.506-0.267c0.143-0.122,0.213-0.296,0.213-0.522
			c0-0.202-0.041-0.363-0.119-0.483c-0.08-0.119-0.197-0.223-0.35-0.307c-0.152-0.082-0.34-0.157-0.561-0.223
			c-0.221-0.063-0.471-0.141-0.746-0.228c-0.871-0.232-1.59-0.514-2.156-0.839c-0.564-0.326-1.014-0.691-1.344-1.095
			c-0.33-0.4-0.561-0.837-0.691-1.301c-0.131-0.463-0.195-0.953-0.195-1.47c0-0.602,0.119-1.149,0.359-1.644
			c0.24-0.493,0.58-0.915,1.023-1.268c0.441-0.353,0.971-0.624,1.59-0.816c0.615-0.192,1.303-0.289,2.057-0.289
			c0.457,0,0.885,0.038,1.285,0.114c0.398,0.076,0.781,0.196,1.143,0.359c0.363,0.164,0.717,0.374,1.062,0.633
			c0.344,0.258,0.688,0.563,1.029,0.919c0.123,0.146,0.188,0.282,0.189,0.409c0.004,0.127-0.078,0.263-0.244,0.408
			c-0.283,0.232-0.553,0.461-0.812,0.687c-0.258,0.225-0.523,0.476-0.799,0.751c-0.088,0.072-0.176,0.117-0.262,0.137
			c-0.088,0.019-0.172,0.016-0.252-0.006c-0.078-0.022-0.154-0.059-0.229-0.11c-0.072-0.05-0.137-0.112-0.195-0.185
			c-0.254-0.283-0.545-0.474-0.871-0.571s-0.631-0.147-0.914-0.147c-0.355,0-0.639,0.062-0.85,0.186
			c-0.211,0.124-0.309,0.312-0.293,0.565c0.014,0.189,0.086,0.337,0.213,0.442c0.127,0.104,0.283,0.19,0.467,0.255
			c0.186,0.066,0.383,0.119,0.588,0.159c0.209,0.039,0.396,0.085,0.572,0.136c0.652,0.211,1.252,0.439,1.797,0.686
			c0.543,0.246,1.016,0.551,1.416,0.909c0.398,0.358,0.707,0.79,0.93,1.289c0.221,0.502,0.332,1.111,0.332,1.831
			c0,0.717-0.145,1.361-0.43,1.926c-0.287,0.567-0.68,1.041-1.182,1.428c-0.502,0.385-1.094,0.678-1.781,0.881
			c-0.686,0.204-1.424,0.305-2.215,0.305c-0.449,0-0.908-0.039-1.371-0.119c-0.465-0.08-0.914-0.209-1.352-0.387
			c-0.436-0.178-0.85-0.405-1.24-0.687c-0.391-0.279-0.74-0.619-1.045-1.018c-0.08-0.101-0.139-0.208-0.18-0.321
			c-0.039-0.112-0.059-0.223-0.055-0.332c0.004-0.108,0.025-0.209,0.064-0.298c0.041-0.092,0.104-0.169,0.191-0.234l1.404-1.406
			c0.174-0.146,0.328-0.194,0.463-0.152S118.781,21.378,118.992,21.58z"/>
	</g>
	<path fill="#F0CF79" d="M102.535,7.394c0-0.305,0.066-0.521,0.195-0.647c0.133-0.127,0.334-0.19,0.609-0.19h2.527
		c0.254,0,0.459,0.063,0.615,0.19s0.234,0.343,0.234,0.647v2.123c0,0.088-0.021,0.183-0.061,0.284s-0.096,0.199-0.168,0.294
		c-0.074,0.094-0.162,0.172-0.268,0.234c-0.105,0.062-0.223,0.091-0.354,0.091h-2.527c-0.535,0-0.805-0.301-0.805-0.903V7.394
		L102.535,7.394z"/>
	<path fill="#AD89BE" d="M82.144,7.394c0-0.305,0.064-0.521,0.196-0.647c0.13-0.127,0.334-0.19,0.61-0.19h2.525
		c0.254,0,0.459,0.063,0.615,0.19c0.156,0.127,0.234,0.343,0.234,0.647v2.123c0,0.088-0.02,0.183-0.06,0.284
		c-0.041,0.102-0.097,0.199-0.169,0.294c-0.072,0.094-0.162,0.172-0.267,0.234c-0.105,0.062-0.223,0.091-0.354,0.091H82.95
		c-0.538,0-0.806-0.301-0.806-0.903V7.394z"/>
	<path fill="#7ECCBF" d="M61.719,7.394c0-0.305,0.066-0.521,0.197-0.647c0.13-0.127,0.333-0.19,0.609-0.19h2.525
		c0.254,0,0.459,0.063,0.615,0.19c0.156,0.127,0.234,0.343,0.234,0.647v2.123c0,0.088-0.02,0.183-0.06,0.284
		C65.8,9.903,65.744,10,65.673,10.095c-0.073,0.094-0.162,0.172-0.268,0.234c-0.105,0.062-0.224,0.091-0.354,0.091h-2.525
		c-0.537,0-0.807-0.301-0.807-0.903V7.394z"/>
</g>
<g>
	<path fill="#536786" d="M24.25-0.02H11.006c-5.381,0-9.759,4.378-9.759,9.761v13.242c0,5.382,4.378,9.761,9.759,9.761H24.25
		c5.381,0,9.76-4.379,9.76-9.761V9.74C34.01,4.358,29.631-0.02,24.25-0.02L24.25-0.02z M29.629,22.434
		c0,3.272-2.654,5.928-5.928,5.928H11.556c-3.273,0-5.928-2.654-5.928-5.928V10.289c0-3.272,2.653-5.928,5.928-5.928h12.146
		c3.272,0,5.928,2.654,5.928,5.928L29.629,22.434L29.629,22.434z"/>
	<path fill="#F0CF79" d="M20.845,11.173c-0.256-0.256-0.383-0.492-0.379-0.708c0.003-0.218,0.12-0.441,0.351-0.673l2.121-2.121
		c0.213-0.213,0.438-0.332,0.679-0.354c0.236-0.025,0.482,0.092,0.738,0.348l1.783,1.781c0.072,0.074,0.135,0.17,0.188,0.289
		c0.051,0.119,0.087,0.248,0.104,0.389c0.02,0.142,0.009,0.281-0.025,0.419c-0.037,0.142-0.111,0.268-0.222,0.374l-2.121,2.122
		c-0.45,0.451-0.928,0.424-1.434-0.082L20.845,11.173z"/>
	<path fill="#AD89BE" d="M15.019,16.999c-0.256-0.256-0.382-0.492-0.379-0.708c0.002-0.217,0.12-0.44,0.353-0.672l2.12-2.122
		c0.214-0.212,0.439-0.332,0.677-0.354c0.236-0.025,0.484,0.091,0.741,0.347l1.782,1.783c0.073,0.072,0.137,0.169,0.188,0.287
		c0.053,0.12,0.087,0.248,0.106,0.389c0.019,0.141,0.009,0.281-0.028,0.421c-0.037,0.142-0.109,0.266-0.22,0.375l-2.121,2.119
		c-0.451,0.452-0.929,0.426-1.436-0.081L15.019,16.999z"/>
	<path fill="#7ECCBF" d="M9.195,22.824c-0.257-0.256-0.383-0.492-0.381-0.708c0.003-0.217,0.121-0.441,0.354-0.673l2.121-2.121
		c0.213-0.213,0.438-0.331,0.677-0.355c0.237-0.024,0.484,0.092,0.741,0.349l1.781,1.781c0.073,0.073,0.136,0.17,0.188,0.289
		c0.052,0.118,0.086,0.246,0.105,0.388c0.018,0.141,0.009,0.281-0.028,0.421c-0.036,0.141-0.109,0.265-0.22,0.374l-2.12,2.121
		c-0.451,0.451-0.93,0.425-1.436-0.081L9.195,22.824z"/>
</g>
</svg>
